HIERARCHY
ROOT Hips
{
  OFFSET -0.224121 16.9891 -0.370166
  CHANNELS 6 Xposition Yposition Zposition Zrotation Xrotation Yrotation
  JOINT LHipJoint
  {
    OFFSET 0 0 0
    CHANNELS 6 Xposition Yposition Zposition Zrotation Xrotation Yrotation
    JOINT LeftUpLeg
    {
      OFFSET 1.36306 -1.79463 0.83929
      CHANNELS 6 Xposition Yposition Zposition Zrotation Xrotation Yrotation
      JOINT LeftLeg
      {
        OFFSET 2.44811 -6.72613 0
        CHANNELS 6 Xposition Yposition Zposition Zrotation Xrotation Yrotation
        JOINT LeftFoot
        {
          OFFSET 2.5622 -7.03959 0
          CHANNELS 6 Xposition Yposition Zposition Zrotation Xrotation Yrotation
          JOINT LeftToeBase
          {
            OFFSET 0.15764 -0.43311 2.32255
            CHANNELS 6 Xposition Yposition Zposition Zrotation Xrotation Yrotation
            End Site
            {
              OFFSET 0 0 0
            }
          }
        }
      }
    }
  }
  JOINT RHipJoint
  {
    OFFSET 0 0 0
    CHANNELS 6 Xposition Yposition Zposition Zrotation Xrotation Yrotation
    JOINT RightUpLeg
    {
      OFFSET -1.30552 -1.79463 0.83929
      CHANNELS 6 Xposition Yposition Zposition Zrotation Xrotation Yrotation
      JOINT RightLeg
      {
        OFFSET -2.54253 -6.98555 0
        CHANNELS 6 Xposition Yposition Zposition Zrotation Xrotation Yrotation
        JOINT RightFoot
        {
          OFFSET -2.56826 -7.05623 0
          CHANNELS 6 Xposition Yposition Zposition Zrotation Xrotation Yrotation
          JOINT RightToeBase
          {
            OFFSET -0.16473 -0.45259 2.36315
            CHANNELS 6 Xposition Yposition Zposition Zrotation Xrotation Yrotation
            End Site
            {
              OFFSET 0 0 0
            }
          }
        }
      }
    }
  }
  JOINT LowerBack
  {
    OFFSET 0 0 0
    CHANNELS 6 Xposition Yposition Zposition Zrotation Xrotation Yrotation
    JOINT Spine
    {
      OFFSET 0.02827 2.03559 -0.19338
      CHANNELS 6 Xposition Yposition Zposition Zrotation Xrotation Yrotation
      JOINT Spine1
      {
        OFFSET 0.05672 2.04885 -0.04275
        CHANNELS 6 Xposition Yposition Zposition Zrotation Xrotation Yrotation
        JOINT Neck
        {
          OFFSET 0 0 0
          CHANNELS 6 Xposition Yposition Zposition Zrotation Xrotation Yrotation
          JOINT Neck1
          {
            OFFSET -0.05417 1.74624 0.17202
            CHANNELS 6 Xposition Yposition Zposition Zrotation Xrotation Yrotation
            JOINT Head
            {
              OFFSET 0.10407 1.76136 -0.12397
              CHANNELS 6 Xposition Yposition Zposition Zrotation Xrotation Yrotation
              End Site
              {
                OFFSET 0 0 0
              }
            }
          }
        }
        JOINT LeftShoulder
        {
          OFFSET 0 0 0
          CHANNELS 6 Xposition Yposition Zposition Zrotation Xrotation Yrotation
          JOINT LeftArm
          {
            OFFSET 3.36241 1.20089 -0.31121
            CHANNELS 6 Xposition Yposition Zposition Zrotation Xrotation Yrotation
            JOINT LeftForeArm
            {
              OFFSET 4.983 0 0
              CHANNELS 6 Xposition Yposition Zposition Zrotation Xrotation Yrotation
              JOINT LeftHand
              {
                OFFSET 3.48356 0 0
                CHANNELS 6 Xposition Yposition Zposition Zrotation Xrotation Yrotation
                JOINT LeftFingerBase
                {
                  OFFSET 0 0 0
                  CHANNELS 6 Xposition Yposition Zposition Zrotation Xrotation Yrotation
                  JOINT LeftHandIndex1
                  {
                    OFFSET 0.71526 0 0
                    CHANNELS 6 Xposition Yposition Zposition Zrotation Xrotation Yrotation
                    End Site
                    {
                      OFFSET 0 0 0
                    }
                  }
                }
                JOINT LThumb
                {
                  OFFSET 0 0 0
                  CHANNELS 6 Xposition Yposition Zposition Zrotation Xrotation Yrotation
                  End Site
                  {
                    OFFSET 0 0 0
                  }
                }
              }
            }
          }
        }
        JOINT RightShoulder
        {
          OFFSET 0 0 0
          CHANNELS 6 Xposition Yposition Zposition Zrotation Xrotation Yrotation
          JOINT RightArm
          {
            OFFSET -3.1366 1.37405 -0.40465
            CHANNELS 6 Xposition Yposition Zposition Zrotation Xrotation Yrotation
            JOINT RightForeArm
            {
              OFFSET -5.2419 0 0
              CHANNELS 6 Xposition Yposition Zposition Zrotation Xrotation Yrotation
              JOINT RightHand
              {
                OFFSET -3.44417 0 0
                CHANNELS 6 Xposition Yposition Zposition Zrotation Xrotation Yrotation
                JOINT RightFingerBase
                {
                  OFFSET 0 0 0
                  CHANNELS 6 Xposition Yposition Zposition Zrotation Xrotation Yrotation
                  JOINT RightHandIndex1
                  {
                    OFFSET -0.62253 0 0
                    CHANNELS 6 Xposition Yposition Zposition Zrotation Xrotation Yrotation
                    End Site
                    {
                      OFFSET 0 0 0
                    }
                  }
                }
                JOINT RThumb
                {
                  OFFSET 0 0 0
                  CHANNELS 6 Xposition Yposition Zposition Zrotation Xrotation Yrotation
                  End Site
                  {
                    OFFSET 0 0 0
                  }
                }
              }
            }
          }
        }
      }
    }
  }
}
MOTION
Frames:	7
Frame Time:	0.0416667
-0.296278 16.3312 38.898 -2.83004 10.5743 -0.105672 0 0 0 -0.299681 5.35791 18.0368 1.36306 -1.79463 0.83929 -8.39 -21.5317 -11.0024 2.44811 -6.72613 0 -5.03353 29.5928 65.6008 2.5622 -7.03959 0 -14.5692 11.7813 2.18235 0.15764 -0.43311 2.32255 0.409901 -2.81883 -0.658155 0 0 0 -8.85582 0.425549 -20.6242 -1.30552 -1.79463 0.83929 59.9761 -29.7379 30.7207 -2.54253 -6.98555 0 -10.3935 44.5209 -36.7684 -2.56826 -7.05623 0 1.7953 16.0007 -0.595837 -0.16473 -0.45259 2.36315 0.286212 20.3319 -10.7101 0 0 0 -1.93281 -2.12354 0.12108 0.02827 2.03559 -0.19338 12.1868 24.4752 -6.63296 0.05672 2.04885 -0.04275 -5.61556 -5.67265 -5.60344 0 0 0 2.94647 -5.21964 -0.238165 -0.05417 1.74624 0.17202 6.97352 31.5325 -2.55533 0.10407 1.76136 -0.12397 -5.29064 -19.3707 3.2687 0 0 0 9.84745 -6.57713 13.4598 3.36241 1.20089 -0.31121 -64.338 4.52169 3.59699 4.983 0 3.55271e-015 -9.40407 32.0254 -86.1055 3.48356 0 0 -30.6651 -10.6439 17.4325 0 0 0 -0.121022 -8.66108e-007 -1.14814 0.71526 -3.55271e-015 0 -1.19271e-015 6.36111e-015 8.34896e-015 0 0 0 -7.95139e-016 0 7.95139e-016 0 0 0 -15.4808 -6.62578 -8.45713 -3.1366 1.37405 -0.40465 76.0288 -4.39238 6.52803 -5.2419 0 0 29.635 16.0621 53.8663 -3.44417 -8.88178e-016 0 13.5982 0.868321 5.93098 0 0 0 0.388201 -1.97459e-007 2.4941 -0.62253 1.77636e-015 0 0 0 -3.18055e-015 0 0 0 -1.59028e-015 -7.95139e-016 -0 
-0.319836 15.8824 39.6989 -3.92143 11.3993 -0.0330852 0 0 0 -0.299681 5.35791 18.0368 1.36306 -1.79463 0.83929 -6.11113 -19.4289 -9.81341 2.44811 -6.72613 -7.10543e-015 -5.14694 30.3893 64.1498 2.5622 -7.03959 -1.77636e-015 -20.0989 9.96723 1.32323 0.15764 -0.43311 2.32255 0.593045 -4.15714 -0.964059 0 0 0 -8.85582 0.425549 -20.6242 -1.30552 -1.79463 0.83929 49.5223 -18.506 22.1873 -2.54253 -6.98555 -7.10543e-015 -1.24001 -4.60318 -25.1757 -2.56826 -7.05623 7.10543e-015 -7.61195 28.3142 -4.0237 -0.16473 -0.45259 2.36315 -4.65868 26.1181 -16.1633 0 0 0 -1.93281 -2.12354 0.12108 0.02827 2.03559 -0.19338 11.0895 24.5445 -6.74098 0.05672 2.04885 -0.04275 -4.96377 -4.80045 -5.57252 0 0 0 2.44554 -4.85351 -0.0890446 -0.05417 1.74624 0.17202 6.36385 31.9154 -2.30275 0.10407 1.76136 -0.12397 -4.54832 -19.1042 3.39971 0 0 0 9.97637 -4.71704 14.3598 3.36241 1.20089 -0.31121 -60.5838 4.02279 0.600501 4.983 0 3.55271e-015 -7.00494 31.1147 -86.6977 3.48356 0 0 -34.4889 -10.7947 16.2339 0 0 0 -0.121022 -8.66108e-007 -1.14814 0.71526 0 3.55271e-015 -1.0312e-015 0 7.75571e-015 0 0 0 -9.93923e-017 0 2.98177e-016 0 0 0 -16.6936 -5.90766 -7.27778 -3.1366 1.37405 -0.40465 75.2538 -6.06967 9.77904 -5.2419 3.55271e-015 -7.10543e-015 27.4303 16.3027 52.1334 -3.44417 0 7.10543e-015 14.4518 -0.172619 3.47605 0 0 0 0.388201 -1.97459e-007 2.4941 -0.62253 0 0 3.53113e-031 3.18055e-015 -6.36111e-015 0 0 0 -0 0 9.54166e-015 
-0.43283 15.1061 40.8186 -4.54619 11.4325 1.61004 0 0 0 -0.299681 5.35791 18.0368 1.36306 -1.79463 0.83929 -2.98416 -17.4876 -9.57854 2.44811 -6.72613 0 -7.55937 35.5363 66.6677 2.5622 -7.03959 8.88178e-016 -25.9778 7.99934 -0.541861 0.15764 -0.43311 2.32255 0.520623 -3.61677 -0.840536 0 0 0 -8.85582 0.425549 -20.6242 -1.30552 -1.79463 0.83929 55.2148 -25.1054 27.761 -2.54253 -6.98555 0 -2.14112 -0.772483 -23.5923 -2.56826 -7.05623 0 -4.39752 26.7959 -4.08648 -0.16473 -0.45259 2.36315 -4.50494 26.7576 -16.4325 0 0 0 -1.93281 -2.12354 0.12108 0.02827 2.03559 -0.19338 9.48631 25.0033 -7.06037 0.05672 2.04885 -0.04275 -3.16537 -3.66598 -5.62829 0 0 0 0.503619 -5.32547 0.175201 -0.05417 1.74624 0.17202 4.08749 31.4861 -1.57506 0.10407 1.76136 -0.12397 -1.64838 -15.7451 2.52228 0 0 0 9.64606 -3.13988 12.8673 3.36241 1.20089 -0.31121 -58.978 2.07269 -2.16302 4.983 0 -7.10543e-015 -3.71083 29.5784 -86.2083 3.48356 0 -3.55271e-015 -37.6163 -10.6473 14.9144 0 0 0 -0.121022 -8.66108e-007 -1.14814 0.71526 -7.10543e-015 0 -1.59028e-015 0 -0 0 0 0 -2.38542e-015 -6.36111e-015 -9.54166e-015 0 0 0 -17.4628 -4.31871 -6.15745 -3.1366 1.37405 -0.40465 74.0257 -7.11443 10.9544 -5.2419 -3.55271e-015 -7.10543e-015 26.7758 19.2787 54.991 -3.44417 1.77636e-015 0 10.9612 -3.07598 -4.19018 0 0 0 0.388201 -1.97459e-007 2.4941 -0.62253 1.77636e-015 7.10543e-015 -1.59028e-015 1.59028e-015 -0 0 0 0 7.95139e-016 -1.59028e-015 -6.36111e-015 
-0.712882 14.9766 41.7406 -4.06535 10.7714 4.65585 0 0 0 -0.299681 5.35791 18.0368 1.36306 -1.79463 0.83929 -0.909982 -15.0022 -11.0684 2.44811 -6.72613 0 -8.51451 36.7616 68.9123 2.5622 -7.03959 8.88178e-016 -23.7165 9.77109 0.637063 0.15764 -0.43311 2.32255 0.363334 -2.48923 -0.582455 0 0 0 -8.85582 0.425549 -20.6242 -1.30552 -1.79463 0.83929 54.1131 -26.8542 27.358 -2.54253 -6.98555 7.10543e-015 -2.02082 -0.0867095 -21.549 -2.56826 -7.05623 0 -4.21861 32.6736 -6.24787 -0.16473 -0.45259 2.36315 -4.57544 27.4165 -16.8721 0 0 0 -1.93281 -2.12354 0.12108 0.02827 2.03559 -0.19338 8.106 26.0107 -7.40203 0.05672 2.04885 -0.04275 -1.81401 -2.83447 -5.7164 0 0 0 -2.25723 -6.79035 0.357809 -0.05417 1.74624 0.17202 0.952568 30.0493 -0.739065 0.10407 1.76136 -0.12397 2.38192 -9.36442 0.194763 0 0 0 9.2687 -2.79316 9.51077 3.36241 1.20089 -0.31121 -58.5926 1.12645 -4.95314 4.983 0 7.10543e-015 -0.178314 28.5187 -84.0915 3.48356 7.10543e-015 0 -39.2433 -10.4173 14.0399 0 0 0 -0.121022 -8.66108e-007 -1.14814 0.71526 0 -3.55271e-015 -5.56597e-015 3.18055e-015 7.95139e-015 0 0 0 7.95139e-016 0 2.78299e-015 0 0 0 -16.8158 -2.24684 -6.22906 -3.1366 1.37405 -0.40465 74.3943 -6.95399 13.8992 -5.2419 -1.77636e-015 -7.10543e-015 24.4769 20.6532 54.6318 -3.44417 3.55271e-015 0 8.57423 -4.37364 -8.34536 0 0 0 0.388201 -1.97459e-007 2.4941 -0.62253 -3.55271e-015 0 -1.59028e-015 -1.59028e-015 3.18055e-015 0 0 0 -7.95139e-016 0 -0 
-0.86821 15.0414 42.5644 -3.29439 10.0713 5.89753 0 0 0 -0.299681 5.35791 18.0368 1.36306 -1.79463 0.83929 -0.406804 -15.668 -12.9066 2.44811 -6.72613 0 -10.2193 40.9861 73.0889 2.5622 -7.03959 4.44089e-016 -16.7892 10.975 0.937244 0.15764 -0.43311 2.32255 0.131525 -0.88041 -0.207761 0 0 0 -8.85582 0.425549 -20.6242 -1.30552 -1.79463 0.83929 51.2242 -24.6991 24.7289 -2.54253 -6.98555 0 -2.00408 0.0338648 -21.1905 -2.56826 -7.05623 7.10543e-015 -3.7069 30.8818 -5.72172 -0.16473 -0.45259 2.36315 -4.63295 27.9396 -17.2145 0 0 0 -1.93281 -2.12354 0.12108 0.02827 2.03559 -0.19338 7.93101 27.0497 -7.56915 0.05672 2.04885 -0.04275 -1.75797 -2.31902 -5.76086 0 0 0 -4.03626 -8.44566 0.266559 -0.05417 1.74624 0.17202 -0.946707 28.3918 -0.422519 0.10407 1.76136 -0.12397 3.50114 -1.4895 -2.56175 0 0 0 8.72003 -2.97187 7.03741 3.36241 1.20089 -0.31121 -61.0084 1.13171 -8.73054 4.983 0 0 4.09928 27.7314 -78.9578 3.48356 0 -3.55271e-015 -40.035 -9.97051 13.1272 0 0 0 -0.121022 -8.66108e-007 -1.14814 0.71526 0 3.55271e-015 -3.18055e-015 3.18055e-015 -3.97569e-015 0 0 0 -1.59028e-015 -3.18055e-015 2.78299e-015 0 0 0 -15.7832 -0.546244 -7.30099 -3.1366 1.37405 -0.40465 76.761 -3.97526 15.8376 -5.2419 0 -7.10543e-015 22.4533 20.8462 52.7704 -3.44417 -3.55271e-015 0 2.64776 -3.11106 -7.09622 0 0 0 0.388201 -1.97459e-007 2.4941 -0.62253 0 0 -1.76556e-031 3.18055e-015 3.18055e-015 0 0 0 2.38542e-015 0 -9.54166e-015 
-0.919144 15.1185 43.2557 -2.87958 9.69778 5.63258 0 0 0 -0.299681 5.35791 18.0368 1.36306 -1.79463 0.83929 -0.67676 -17.2694 -12.5305 2.44811 -6.72613 0 -10.7358 44.385 76.2448 2.5622 -7.03959 0 -11.7708 12.0874 1.10845 0.15764 -0.43311 2.32255 -0.112814 0.735976 0.175117 0 0 0 -8.85582 0.425549 -20.6242 -1.30552 -1.79463 0.83929 49.7043 -22.3486 23.0629 -2.54253 -6.98555 7.10543e-015 -1.99015 0.173774 -20.781 -2.56826 -7.05623 7.10543e-015 -3.16262 28.599 -5.02207 -0.16473 -0.45259 2.36315 -4.65096 28.1111 -17.327 0 0 0 -1.93281 -2.12354 0.12108 0.02827 2.03559 -0.19338 7.75461 27.39 -7.63745 0.05672 2.04885 -0.04275 -1.56648 -1.95734 -5.78357 0 0 0 -4.22388 -9.33134 0.0911246 -0.05417 1.74624 0.17202 -1.06695 27.4994 -0.548175 0.10407 1.76136 -0.12397 1.30445 6.10984 -3.89622 0 0 0 8.19227 -2.71106 6.51611 3.36241 1.20089 -0.31121 -69.4586 -0.390455 -12.0698 4.983 -3.55271e-015 0 6.70693 27.4664 -68.8564 3.48356 0 0 -35.3569 -7.29171 10.1135 0 0 0 -0.121022 -8.66108e-007 -1.14814 0.71526 0 -3.55271e-015 -4.52235e-015 9.54166e-015 1.1455e-014 0 0 0 2.23633e-015 -6.36111e-015 -1.98785e-015 0 0 0 -15.3886 0.370033 -7.67081 -3.1366 1.37405 -0.40465 81.4418 3.34589 13.2078 -5.2419 0 7.10543e-015 26.2811 18.7727 53.9389 -3.44417 0 0 -13.6783 -0.182046 -2.09972 0 0 0 0.388201 -1.97459e-007 2.4941 -0.62253 0 0 1.59028e-015 0 -6.36111e-015 0 0 0 -3.97569e-016 0 -3.18055e-015 
-0.947627 15.2389 43.9148 -2.41679 9.90526 4.84509 0 0 0 -0.299681 5.35791 18.0368 1.36306 -1.79463 0.83929 -1.65242 -17.5834 -10.0468 2.44811 -6.72613 0 -8.22149 44.6614 75.8329 2.5622 -7.03959 0 -10.4132 14.3305 2.16588 0.15764 -0.43311 2.32255 -0.049959 0.328968 0.0782016 0 0 0 -8.85582 0.425549 -20.6242 -1.30552 -1.79463 0.83929 48.7535 -20.4187 21.8606 -2.54253 -6.98555 0 -1.96118 0.484023 -19.8623 -2.56826 -7.05623 0 -2.6079 26.468 -4.36873 -0.16473 -0.45259 2.36315 -4.63505 27.9585 -17.2267 0 0 0 -1.93281 -2.12354 0.12108 0.02827 2.03559 -0.19338 6.75326 27.1358 -7.69405 0.05672 2.04885 -0.04275 -0.520447 -2.04947 -5.79443 0 0 0 -3.93658 -9.5635 0.0201074 -0.05417 1.74624 0.17202 -0.724323 27.2658 -0.674111 0.10407 1.76136 -0.12397 0.124224 9.10155 -3.89455 0 0 0 7.99573 -2.80313 6.78596 3.36241 1.20089 -0.31121 -75.4407 -1.30915 -13.2883 4.983 3.55271e-015 0 7.73308 27.1572 -61.4842 3.48356 -7.10543e-015 0 -32.6372 -4.35736 5.77608 0 0 0 -0.121022 -8.66108e-007 -1.14814 0.71526 0 0 -7.95139e-016 -6.36111e-015 4.37326e-015 0 0 0 -2.78299e-015 0 -3.18055e-015 0 0 0 -15.0933 0.394309 -7.58201 -3.1366 1.37405 -0.40465 83.567 6.65742 14.3759 -5.2419 -1.77636e-015 7.10543e-015 31.5128 14.7303 54.1575 -3.44417 0 7.10543e-015 -16.7056 0.0402868 -1.82747 0 0 0 0.388201 -1.97459e-007 2.4941 -0.62253 -4.44089e-016 0 9.93923e-016 1.98785e-015 6.36111e-015 0 0 0 -5.96354e-016 1.98785e-016 -3.18055e-015 
